<?xml version="1.0" encoding="UTF-8"?>
<svg id="Layer_1" data-name="Layer 1" xmlns="http://www.w3.org/2000/svg" viewBox="0 0 18.99 17.42">
  <defs>
    <style>
      .cls-1 {
        fill: #0f1e40;
        fill-rule: evenodd;
      }
    </style>
  </defs>
  <path class="cls-1" d="M18.99,1.98v6.7c0,.34-.28.62-.62.62s-.62-.28-.62-.62V1.98c0-.4-.33-.72-.72-.72H1.96c-.4,0-.72.32-.72.72v13.5c-.01.4.31.72.71.72h7.53c.34,0,.62.28.62.62s-.28.62-.62.62H1.95C.87,17.45-.01,16.57-.01,15.49V1.98C0,.9.88.02,1.96.02h15.07c1.08,0,1.96.88,1.96,1.96Z"/>
  <path class="cls-1" d="M18.99,1.98v6.7c0,.34-.28.62-.62.62s-.62-.28-.62-.62V1.98c0-.4-.33-.72-.72-.72H1.96c-.4,0-.72.32-.72.72v13.5c-.01.4.31.72.71.72h7.53c.34,0,.62.28.62.62s-.28.62-.62.62H1.95C.87,17.45-.01,16.57-.01,15.49V1.98C0,.9.88.02,1.96.02h15.07c1.08,0,1.96.88,1.96,1.96Z"/>
  <path class="cls-1" d="M16,13.75c.23-.45.36-.95.36-1.49,0-1.82-1.48-3.3-3.3-3.3s-3.3,1.48-3.3,3.3,1.48,3.3,3.3,3.3c.8,0,1.52-.28,2.09-.76.02-.01.03-.02.04-.04l.05.04c.32-.27.58-.6.78-.97l-.04-.03s0-.03.02-.05ZM13.06,14.31c-1.14,0-2.06-.92-2.06-2.05s.92-2.06,2.06-2.06,2.06.92,2.06,2.06-.93,2.05-2.06,2.05Z"/>
  <path class="cls-1" d="M18.01,16.22c-.12.14-.29.23-.48.23-.15,0-.28-.05-.39-.14l-1.9-1.51-.05-.04s-.02.03-.04.04l-.28-.23c-.28-.24-.33-.66-.1-.95s.65-.33.94-.1l.29.23s-.02.03-.02.05l.04.03,1.89,1.51c.27.22.31.61.1.88Z"/>
  <path class="cls-1" d="M15.41,5.11c0,.34-.28.62-.62.62H4.19c-.34,0-.62-.28-.62-.62s.28-.62.62-.62h10.6c.34,0,.62.28.62.62Z"/>
  <path class="cls-1" d="M15.41,5.11c0,.34-.28.62-.62.62H4.19c-.34,0-.62-.28-.62-.62s.28-.62.62-.62h10.6c.34,0,.62.28.62.62Z"/>
  <path class="cls-1" d="M10.05,8.68c0,.34-.28.62-.62.62h-5.24c-.34,0-.62-.28-.62-.62s.28-.62.62-.62h5.24c.34,0,.62.28.62.62Z"/>
  <path class="cls-1" d="M10.05,8.68c0,.34-.28.62-.62.62h-5.24c-.34,0-.62-.28-.62-.62s.28-.62.62-.62h5.24c.34,0,.62.28.62.62Z"/>
</svg>