<?xml version="1.0" encoding="UTF-8"?>
<svg id="Layer_1" data-name="Layer 1" xmlns="http://www.w3.org/2000/svg" viewBox="0 0 18.99 17.42">
  <defs>
    <style>
      .cls-1 {
        fill: #0f1e40;
      }
    </style>
  </defs>
  <path class="cls-1" d="M14.58,3.17H3.82c-.34,0-.61.27-.61.61s.27.61.61.61h10.76c.34,0,.61-.27.61-.61s-.27-.61-.61-.61Z"/>
  <path class="cls-1" d="M15.19,6.71c0-.34-.27-.61-.61-.61H3.82c-.34,0-.61.27-.61.61s.27.61.61.61h10.76c.34,0,.61-.27.61-.61Z"/>
  <path class="cls-1" d="M3.82,9.04c-.34,0-.61.27-.61.61s.27.61.61.61h7.03c.34,0,.61-.27.61-.61s-.27-.61-.61-.61H3.82Z"/>
  <path class="cls-1" d="M8.41,16.2H1.95c-.39,0-.72-.32-.72-.72V1.94c0-.39.32-.72.72-.72h14.5c.4,0,.72.32.72.72v4.94c0,.34.27.61.61.61s.61-.27.61-.61V1.94c0-1.07-.87-1.94-1.94-1.94H1.95C.88,0,.02.87.02,1.94v13.55c0,1.07.87,1.94,1.94,1.94h6.46c.34,0,.61-.27.61-.61s-.27-.61-.61-.61Z"/>
  <path class="cls-1" d="M18.4,9.18c-.38-.38-.89-.59-1.43-.59s-1.05.21-1.43.59l-4.79,4.79c-.17.16-.27.37-.31.6l-.26,1.55c-.06.35.06.72.31.97.21.21.49.33.79.33.06,0,.12,0,.18-.02l1.55-.26c.23-.04.44-.15.6-.31l4.79-4.79c.38-.38.59-.89.59-1.43,0-.54-.21-1.05-.59-1.43ZM17.53,11.18l-.54.54-1.14-1.14.54-.54c.15-.15.36-.24.57-.24s.42.08.57.24c.31.32.31.83,0,1.14ZM11.6,14.83l3.38-3.38,1.14,1.14-3.33,3.35-1.41.26.21-1.37Z"/>
</svg>